<?xml version="1.0" encoding="UTF-8"?>
<!DOCTYPE svg PUBLIC "-//W3C//DTD SVG 1.1//EN" "http://www.w3.org/Graphics/SVG/1.1/DTD/svg11.dtd">
<svg xmlns="http://www.w3.org/2000/svg" version="1.1" width="3035px" height="2011px" style="shape-rendering:geometricPrecision; text-rendering:geometricPrecision; image-rendering:optimizeQuality; fill-rule:evenodd; clip-rule:evenodd" xmlns:xlink="http://www.w3.org/1999/xlink">
<g><path style="opacity:1" fill="#fefefe" d="M 1740.5,292.5 C 1915.58,322.19 2083.91,374.023 2245.5,448C 2394.85,516.97 2536.85,597.637 2671.5,690C 2749.04,743.382 2824.7,799.215 2898.5,857.5C 2898.5,857.833 2898.5,858.167 2898.5,858.5C 2787.82,789.137 2674.15,724.304 2557.5,664C 2405.89,586.027 2248.89,521.027 2086.5,469C 2048.37,457.385 2010.04,446.552 1971.5,436.5C 1814.05,394.965 1653.89,373.965 1491,373.5C 1415.28,373.253 1340.11,378.586 1265.5,389.5C 1179.42,401.674 1095.09,421.007 1012.5,447.5C 1002.88,449.899 993.544,452.899 984.5,456.5C 848.977,502.433 720.977,563.599 600.5,640C 559.166,666.19 518.833,693.69 479.5,722.5C 397.654,722.316 315.987,718.816 234.5,712C 235.044,711.283 235.711,710.783 236.5,710.5C 379.516,610.574 530.849,523.741 690.5,450C 831.782,385.295 978.449,337.128 1130.5,305.5C 1333.06,265.069 1536.39,260.736 1740.5,292.5 Z"/></g>
<g><path style="opacity:0.463" fill="#312520" d="M 1740.5,291.5 C 1740.5,291.833 1740.5,292.167 1740.5,292.5C 1536.39,260.736 1333.06,265.069 1130.5,305.5C 1130.5,305.167 1130.5,304.833 1130.5,304.5C 1333.06,263.114 1536.39,258.781 1740.5,291.5 Z"/></g>
<g><path style="opacity:0.361" fill="#392d27" d="M 1740.5,291.5 C 1881.81,314.328 2018.81,352.494 2151.5,406C 2302.79,467.638 2446.79,542.304 2583.5,630C 2701.74,706.117 2815.74,788.117 2925.5,876C 2927.01,876.837 2927.51,878.004 2927,879.5C 2775.48,781.293 2617.65,693.126 2453.5,615C 2298.19,541.286 2137.52,482.119 1971.5,437.5C 1971.5,437.167 1971.5,436.833 1971.5,436.5C 2010.04,446.552 2048.37,457.385 2086.5,469C 2248.89,521.027 2405.89,586.027 2557.5,664C 2674.15,724.304 2787.82,789.137 2898.5,858.5C 2899.57,859.885 2900.91,861.051 2902.5,862C 2903.17,862.667 2903.83,862.667 2904.5,862C 2902.65,860.248 2900.65,858.748 2898.5,857.5C 2824.7,799.215 2749.04,743.382 2671.5,690C 2536.85,597.637 2394.85,516.97 2245.5,448C 2083.91,374.023 1915.58,322.19 1740.5,292.5C 1740.5,292.167 1740.5,291.833 1740.5,291.5 Z"/></g>
<g><path style="opacity:0.494" fill="#2e231e" d="M 1971.5,436.5 C 1971.5,436.833 1971.5,437.167 1971.5,437.5C 1850.36,406.2 1727.36,386.366 1602.5,378C 1489.75,370.944 1377.41,375.11 1265.5,390.5C 1265.5,390.167 1265.5,389.833 1265.5,389.5C 1340.11,378.586 1415.28,373.253 1491,373.5C 1653.89,373.965 1814.05,394.965 1971.5,436.5 Z"/></g>
<g><path style="opacity:0.386" fill="#362a24" d="M 1265.5,389.5 C 1265.5,389.833 1265.5,390.167 1265.5,390.5C 1179.81,403.441 1095.47,422.775 1012.5,448.5C 1012.5,448.167 1012.5,447.833 1012.5,447.5C 1095.09,421.007 1179.42,401.674 1265.5,389.5 Z"/></g>
<g><path style="opacity:0.686" fill="#897d76" d="M 1012.5,447.5 C 1012.5,447.833 1012.5,448.167 1012.5,448.5C 1003.18,451.497 993.85,454.497 984.5,457.5C 984.5,457.167 984.5,456.833 984.5,456.5C 993.544,452.899 1002.88,449.899 1012.5,447.5 Z"/></g>
<g><path style="opacity:0.999" fill="#fdfdfd" d="M 1472.5,473.5 C 1611.62,472.005 1729.78,520.338 1827,618.5C 1914.13,713.316 1945.8,824.316 1922,951.5C 1897.7,1049.74 1844.87,1128.57 1763.5,1188C 1692.46,1238.91 1613.13,1267.91 1525.5,1275C 1385.02,1287.72 1261.68,1248.39 1155.5,1157C 1061.27,1070.69 1019.43,963.523 1030,835.5C 1036.86,771.884 1058.86,714.217 1096,662.5C 1166.47,567.635 1259.97,508.135 1376.5,484C 1408.39,478.058 1440.39,474.558 1472.5,473.5 Z M 1584.5,500.5 C 1590.2,499.275 1594.7,500.942 1598,505.5C 1599.63,504.711 1601.13,503.711 1602.5,502.5C 1603.53,507.154 1601.53,509.487 1596.5,509.5C 1596.62,512.688 1597.45,515.688 1599,518.5C 1604.52,522.594 1609.85,526.927 1615,531.5C 1615.33,533.833 1615.67,536.167 1616,538.5C 1621.19,536.693 1623.86,533.36 1624,528.5C 1625.29,526.208 1626.96,524.208 1629,522.5C 1629.94,519.653 1629.44,517.153 1627.5,515C 1623.42,513.529 1619.42,511.862 1615.5,510C 1614.55,509.282 1614.38,508.449 1615,507.5C 1618.45,508.721 1621.95,508.721 1625.5,507.5C 1633.04,509.54 1640.71,511.373 1648.5,513C 1698.92,532.528 1744.92,559.195 1786.5,593C 1886.92,683.086 1930.09,795.586 1916,930.5C 1894.49,1036.94 1839.65,1121.44 1751.5,1184C 1675.85,1235.22 1592.18,1262.88 1500.5,1267C 1377.35,1272.73 1268.35,1236.73 1173.5,1159C 1102.1,1097.38 1058.26,1019.88 1042,926.5C 1033.79,859.281 1043.13,794.615 1070,732.5C 1075.2,721.268 1081.03,710.435 1087.5,700C 1090.26,699.468 1092.93,698.634 1095.5,697.5C 1096.25,701.999 1096.92,706.499 1097.5,711C 1094.7,714.731 1093.53,718.898 1094,723.5C 1094.39,724.428 1095.05,725.095 1096,725.5C 1097.56,724.971 1099.06,724.304 1100.5,723.5C 1100.83,724 1101.17,724.5 1101.5,725C 1099.8,729.102 1098.3,733.268 1097,737.5C 1096.24,739.769 1096.41,741.936 1097.5,744C 1096.97,744.692 1096.31,745.192 1095.5,745.5C 1094.33,763.157 1094.17,780.824 1095,798.5C 1095.21,804.076 1096.38,809.409 1098.5,814.5C 1100.75,813.747 1102.59,812.414 1104,810.5C 1106.33,804.494 1109.67,799.16 1114,794.5C 1116.08,785.662 1118.75,776.995 1122,768.5C 1122.78,765.24 1122.62,762.073 1121.5,759C 1126.41,755.238 1131.41,751.738 1136.5,748.5C 1137.92,746.664 1139.09,744.664 1140,742.5C 1148.42,733.711 1157.59,726.211 1167.5,720C 1167.8,716.502 1169.13,713.502 1171.5,711C 1180.01,710.666 1188.01,708.499 1195.5,704.5C 1196.99,708.353 1198.16,712.353 1199,716.5C 1200.72,717.85 1202.55,719.017 1204.5,720C 1203.43,720.739 1202.76,721.739 1202.5,723C 1206.14,731.271 1206.14,739.605 1202.5,748C 1204.95,749.54 1207.62,749.874 1210.5,749C 1214.37,746.302 1218.37,743.802 1222.5,741.5C 1223.58,750.545 1224.91,759.545 1226.5,768.5C 1226.63,771.852 1225.96,775.019 1224.5,778C 1225.55,781.455 1225.72,784.955 1225,788.5C 1222.27,794.861 1221.44,801.361 1222.5,808C 1224.13,808.494 1225.8,808.66 1227.5,808.5C 1227.77,814.217 1230.44,818.384 1235.5,821C 1235.65,826.456 1235.65,831.956 1235.5,837.5C 1236.53,839.361 1238.03,840.695 1240,841.5C 1240.8,844.244 1241.8,846.911 1243,849.5C 1248.08,853.624 1253.58,857.124 1259.5,860C 1261.91,864.128 1265.58,865.628 1270.5,864.5C 1270.5,863.5 1270.5,862.5 1270.5,861.5C 1268.86,861.714 1267.36,861.38 1266,860.5C 1266.27,855.388 1264.61,851.055 1261,847.5C 1260.59,840.475 1259.92,833.475 1259,826.5C 1255.2,823.703 1251.7,820.536 1248.5,817C 1245.67,815.377 1242.67,814.21 1239.5,813.5C 1237.53,807.6 1236.2,801.6 1235.5,795.5C 1233.83,795.5 1232.17,795.5 1230.5,795.5C 1231.11,789.279 1233.61,783.946 1238,779.5C 1238.16,775.713 1238.83,772.046 1240,768.5C 1241.11,766.671 1242.61,765.837 1244.5,766C 1245.42,768.041 1245.76,770.208 1245.5,772.5C 1249.99,772.887 1254.32,773.887 1258.5,775.5C 1258.34,778.187 1258.5,780.854 1259,783.5C 1263.11,783.471 1264.94,785.471 1264.5,789.5C 1266.83,789.5 1269.17,789.5 1271.5,789.5C 1271.33,793.514 1271.5,797.514 1272,801.5C 1272.41,801.957 1272.91,802.291 1273.5,802.5C 1277.63,800.198 1281.63,797.698 1285.5,795C 1287.08,793.172 1288.41,791.172 1289.5,789C 1298.93,786.559 1306.43,781.392 1312,773.5C 1316.53,755.944 1311.19,742.611 1296,733.5C 1296.25,730.643 1294.92,728.309 1292,726.5C 1289.36,722.989 1289.19,719.489 1291.5,716C 1297.31,710.925 1303.65,706.592 1310.5,703C 1313.13,702.005 1315.79,701.672 1318.5,702C 1320.17,705 1321.83,708 1323.5,711C 1320.21,712.328 1316.88,713.661 1313.5,715C 1312.13,716.242 1311.13,717.742 1310.5,719.5C 1312.12,722.784 1314.45,725.451 1317.5,727.5C 1323.65,724.452 1328.65,719.952 1332.5,714C 1331.29,711.734 1329.63,709.901 1327.5,708.5C 1328.65,706.851 1329.98,705.351 1331.5,704C 1336.92,701.561 1342.59,699.894 1348.5,699C 1357.96,693.243 1368.3,690.743 1379.5,691.5C 1379.78,689.037 1380.78,686.87 1382.5,685C 1389.77,684.702 1395.1,681.369 1398.5,675C 1400.91,673.293 1403.58,672.46 1406.5,672.5C 1406.34,670.143 1406.5,667.81 1407,665.5C 1409.85,663.402 1412.52,661.069 1415,658.5C 1416.01,656.975 1416.51,655.308 1416.5,653.5C 1420.15,653.378 1422.98,651.712 1425,648.5C 1426.5,645.5 1428,642.5 1429.5,639.5C 1426.5,638.833 1423.5,638.167 1420.5,637.5C 1426.59,637.919 1428.75,635.253 1427,629.5C 1425.04,626.537 1422.71,623.871 1420,621.5C 1419.12,616.617 1416.62,612.784 1412.5,610C 1417.94,603.448 1424.94,599.781 1433.5,599C 1434.83,597.333 1434.83,595.667 1433.5,594C 1429.42,593.961 1425.59,593.128 1422,591.5C 1418.39,593.562 1414.55,594.895 1410.5,595.5C 1410.5,594.167 1410.5,592.833 1410.5,591.5C 1407.54,591.849 1405.2,590.849 1403.5,588.5C 1406.85,587.713 1410.18,586.879 1413.5,586C 1418.73,581.968 1424.56,579.135 1431,577.5C 1431.5,577.667 1432,577.833 1432.5,578C 1430.41,581.508 1428.08,584.842 1425.5,588C 1427.17,588.667 1428.83,588.667 1430.5,588C 1437.14,583.396 1444.48,581.563 1452.5,582.5C 1452.16,585.786 1451.33,588.786 1450,591.5C 1453.35,594.09 1457.02,594.757 1461,593.5C 1460.68,599.788 1460.52,606.121 1460.5,612.5C 1468.56,611.859 1476.4,610.192 1484,607.5C 1486.09,596.521 1481.92,588.688 1471.5,584C 1475.08,581.246 1479.08,579.246 1483.5,578C 1484.01,573.971 1486.01,570.971 1489.5,569C 1491.83,567.833 1494.17,566.667 1496.5,565.5C 1502.1,567.926 1507.76,568.093 1513.5,566C 1519.7,561.637 1526.03,557.47 1532.5,553.5C 1534.81,549.358 1537.98,546.024 1542,543.5C 1541.82,524.212 1544.82,523.879 1551,542.5C 1553.99,546.227 1555.32,550.561 1555,555.5C 1555.71,557.081 1556.54,558.581 1557.5,560C 1554.12,562.41 1550.78,564.91 1547.5,567.5C 1553.09,575.168 1553.76,583.168 1549.5,591.5C 1547.67,589.043 1546,589.043 1544.5,591.5C 1544.98,592.478 1545.64,593.311 1546.5,594C 1543.77,594.413 1541.1,595.08 1538.5,596C 1528.5,601.983 1517.5,604.983 1505.5,605C 1499.44,609.696 1492.78,613.363 1485.5,616C 1484.42,617.726 1484.26,619.559 1485,621.5C 1487.34,624.176 1489.17,627.176 1490.5,630.5C 1492.97,632.251 1495.64,633.085 1498.5,633C 1500.32,629.083 1501.98,625.083 1503.5,621C 1501.77,619.005 1500.44,616.838 1499.5,614.5C 1504.91,613.735 1506.91,616.069 1505.5,621.5C 1509.75,620.965 1513.92,619.965 1518,618.5C 1520.34,620.027 1521.84,619.361 1522.5,616.5C 1521.32,614.802 1521.32,613.135 1522.5,611.5C 1524.61,613.53 1526.61,615.697 1528.5,618C 1533.81,618.337 1536.81,615.837 1537.5,610.5C 1542.46,611.496 1547.46,611.663 1552.5,611C 1554.3,610.363 1555.64,609.197 1556.5,607.5C 1558.08,608.64 1559.74,609.14 1561.5,609C 1562.17,607.667 1563.17,606.667 1564.5,606C 1563.17,597.799 1564.5,589.965 1568.5,582.5C 1565.53,578.525 1562.53,574.525 1559.5,570.5C 1563.07,569.03 1566.4,569.364 1569.5,571.5C 1571.97,570.197 1574.3,568.697 1576.5,567C 1578.47,566.505 1580.47,566.338 1582.5,566.5C 1582.74,564.533 1582.41,562.699 1581.5,561C 1576.67,559.269 1571.67,558.269 1566.5,558C 1564.52,556.111 1562.18,554.778 1559.5,554C 1558.66,552.989 1558.33,551.822 1558.5,550.5C 1568.56,550.581 1568.9,548.581 1559.5,544.5C 1558.53,542.604 1558.2,540.604 1558.5,538.5C 1560.17,538.5 1561.83,538.5 1563.5,538.5C 1563.66,537.127 1563.49,535.793 1563,534.5C 1556.59,531.382 1552.26,526.382 1550,519.5C 1548.29,518.055 1546.46,517.222 1544.5,517C 1543.44,518.298 1542.27,519.465 1541,520.5C 1537.15,518.881 1533.15,517.881 1529,517.5C 1526.41,517.376 1524.08,518.042 1522,519.5C 1522.49,517.956 1522.99,516.29 1523.5,514.5C 1520.95,514.387 1518.62,515.054 1516.5,516.5C 1515.17,515.5 1515.17,514.5 1516.5,513.5C 1524.23,510.551 1531.73,507.217 1539,503.5C 1540.73,503.454 1542.23,503.954 1543.5,505C 1557.18,505.724 1570.85,506.557 1584.5,507.5C 1584.5,505.167 1584.5,502.833 1584.5,500.5 Z M 1413.5,866.5 C 1418.64,865.512 1423.97,865.179 1429.5,865.5C 1428.11,873.83 1424.78,874.997 1419.5,869C 1417.59,867.878 1415.59,867.045 1413.5,866.5 Z M 1408.5,869.5 C 1411.54,869.508 1414.54,869.841 1417.5,870.5C 1417.5,871.5 1417.5,872.5 1417.5,873.5C 1412.83,874.833 1408.17,874.833 1403.5,873.5C 1403.5,872.5 1403.5,871.5 1403.5,870.5C 1405.41,870.784 1407.08,870.451 1408.5,869.5 Z"/></g>
<g><path style="opacity:0.31" fill="#352a24" d="M 984.5,456.5 C 984.5,456.833 984.5,457.167 984.5,457.5C 824.677,513.242 675.344,588.742 536.5,684C 517.954,697.386 499.287,710.553 480.5,723.5C 479.833,723.5 479.5,723.167 479.5,722.5C 518.833,693.69 559.166,666.19 600.5,640C 720.977,563.599 848.977,502.433 984.5,456.5 Z"/></g>
<g><path style="opacity:0.333" fill="#3a2d27" d="M 1130.5,304.5 C 1130.5,304.833 1130.5,305.167 1130.5,305.5C 978.449,337.128 831.782,385.295 690.5,450C 530.849,523.741 379.516,610.574 236.5,710.5C 236.5,709.833 236.5,709.167 236.5,708.5C 382.138,606.634 536.472,518.468 699.5,444C 837.87,381.377 981.537,334.877 1130.5,304.5 Z"/></g>
<g><path style="opacity:1" fill="#fafafa" d="M 1417.5,671.5 C 1419.92,671.192 1422.26,671.526 1424.5,672.5C 1422.66,681.216 1418.82,688.883 1413,695.5C 1407.55,693.265 1405.22,689.265 1406,683.5C 1410.04,679.631 1413.87,675.631 1417.5,671.5 Z"/></g>
<g><path style="opacity:0.486" fill="#2b201c" d="M 236.5,708.5 C 236.5,709.167 236.5,709.833 236.5,710.5C 235.711,710.783 235.044,711.283 234.5,712C 315.987,718.816 397.654,722.316 479.5,722.5C 479.5,723.167 479.833,723.5 480.5,723.5C 396.825,723.972 313.158,720.472 229.5,713C 231.717,711.277 234.05,709.777 236.5,708.5 Z"/></g>
<g><path style="opacity:0.992" fill="#fafafa" d="M 1417.5,758.5 C 1413.72,760.673 1413.72,763.006 1417.5,765.5C 1415.57,771.828 1412.74,772.162 1409,766.5C 1408.07,764.541 1407.24,762.541 1406.5,760.5C 1407.52,759.148 1408.85,758.148 1410.5,757.5C 1409.17,756.833 1407.83,756.167 1406.5,755.5C 1407.17,754.833 1407.83,754.167 1408.5,753.5C 1407.01,752.756 1405.51,752.09 1404,751.5C 1402.43,748.134 1401.27,744.634 1400.5,741C 1400.59,739.893 1400.92,738.893 1401.5,738C 1403.13,737.506 1404.8,737.34 1406.5,737.5C 1406.2,732.57 1406.53,727.737 1407.5,723C 1409.68,721.485 1411.84,719.985 1414,718.5C 1417.6,720.424 1421.44,721.424 1425.5,721.5C 1425.67,726.844 1425.5,732.177 1425,737.5C 1422.76,739.202 1420.26,740.202 1417.5,740.5C 1417.5,742.5 1417.5,744.5 1417.5,746.5C 1423.34,746.98 1423.68,748.147 1418.5,750C 1417.66,751.011 1417.33,752.178 1417.5,753.5C 1420.69,753.98 1423.52,753.314 1426,751.5C 1428.93,753.193 1432.1,754.193 1435.5,754.5C 1435.72,758.266 1437.05,761.6 1439.5,764.5C 1449.21,763.542 1453.54,767.876 1452.5,777.5C 1450.71,777.215 1449.05,777.548 1447.5,778.5C 1449.09,780.173 1449.75,782.173 1449.5,784.5C 1447.5,784.5 1445.5,784.5 1443.5,784.5C 1443.14,781.437 1442.47,778.437 1441.5,775.5C 1442.95,770.789 1441.28,767.955 1436.5,767C 1439.53,768.737 1440.03,770.903 1438,773.5C 1435.97,771.307 1433.47,770.307 1430.5,770.5C 1431.91,766.741 1431.74,763.075 1430,759.5C 1426.34,761.213 1422.51,761.713 1418.5,761C 1417.75,760.329 1417.41,759.496 1417.5,758.5 Z"/></g>
<g><path style="opacity:1" fill="#f9f9f9" d="M 1438.5,784.5 C 1441.27,784.595 1443.27,785.929 1444.5,788.5C 1441.55,789.321 1438.55,789.821 1435.5,790C 1432.77,792.204 1429.77,793.537 1426.5,794C 1420.99,790.181 1421.32,786.847 1427.5,784C 1424.31,782.913 1420.98,782.08 1417.5,781.5C 1419.87,778.972 1420.87,775.972 1420.5,772.5C 1423.32,772.248 1425.99,772.748 1428.5,774C 1430.15,776.813 1432.15,779.313 1434.5,781.5C 1435.26,780.372 1435.93,779.205 1436.5,778C 1437.17,777.333 1437.83,777.333 1438.5,778C 1439.61,780.12 1439.61,782.287 1438.5,784.5 Z"/></g>
<g><path style="opacity:0.999" fill="#fbfbfb" d="M 1449.5,786.5 C 1451.31,787.63 1453.31,788.296 1455.5,788.5C 1455.35,789.552 1455.52,790.552 1456,791.5C 1457.51,792.257 1458.85,793.257 1460,794.5C 1459.98,798.764 1460.82,802.764 1462.5,806.5C 1461.29,810.284 1459.12,813.284 1456,815.5C 1455.08,814.241 1454.24,812.908 1453.5,811.5C 1452.51,815.107 1452.18,818.774 1452.5,822.5C 1446.61,822.054 1441.61,819.72 1437.5,815.5C 1436.99,812.625 1436.66,809.792 1436.5,807C 1433.48,806.336 1430.65,806.836 1428,808.5C 1426.53,808.097 1425.19,807.43 1424,806.5C 1423.78,807.938 1423.28,809.271 1422.5,810.5C 1419.6,806.818 1420.27,803.651 1424.5,801C 1428.2,798.646 1432.2,797.146 1436.5,796.5C 1436.34,797.873 1436.51,799.207 1437,800.5C 1440.88,799.825 1443.38,797.659 1444.5,794C 1446.13,793.506 1447.8,793.34 1449.5,793.5C 1449.5,791.167 1449.5,788.833 1449.5,786.5 Z"/></g>
<g><path style="opacity:1" fill="#fafafa" d="M 1111.5,800.5 C 1113.37,800.859 1114.87,801.859 1116,803.5C 1118.5,808.015 1120,812.849 1120.5,818C 1120.04,825.631 1116.04,829.131 1108.5,828.5C 1108.46,819.049 1109.46,809.716 1111.5,800.5 Z"/></g>
<g><path style="opacity:0.999" fill="#fdfdfd" d="M 1375.5,808.5 C 1376.5,808.5 1377.5,808.5 1378.5,808.5C 1378.48,812.791 1379.48,816.791 1381.5,820.5C 1387.9,819.438 1392.07,821.771 1394,827.5C 1390.65,828.677 1389.15,831.01 1389.5,834.5C 1386.83,834.5 1384.17,834.5 1381.5,834.5C 1381.85,837.602 1381.18,840.435 1379.5,843C 1383.34,845.855 1385.18,849.688 1385,854.5C 1386.65,855.717 1388.48,856.55 1390.5,857C 1393.75,862.92 1392.09,864.753 1385.5,862.5C 1383.89,862.637 1382.56,863.304 1381.5,864.5C 1383.69,866.85 1386.19,868.85 1389,870.5C 1389.49,871.793 1389.66,873.127 1389.5,874.5C 1386.92,874.431 1384.92,873.265 1383.5,871C 1382.21,870.51 1380.87,870.343 1379.5,870.5C 1379.66,872.527 1379.5,874.527 1379,876.5C 1376.17,876.958 1373.84,878.292 1372,880.5C 1370.82,887.89 1369.32,895.223 1367.5,902.5C 1362.74,901.176 1358.08,901.51 1353.5,903.5C 1350.45,896.475 1345.11,893.975 1337.5,896C 1334.74,896.532 1332.07,897.366 1329.5,898.5C 1328.57,897.311 1328.24,895.978 1328.5,894.5C 1324.17,894.5 1319.83,894.5 1315.5,894.5C 1313.32,890.116 1312.32,885.449 1312.5,880.5C 1310.83,880.5 1309.17,880.5 1307.5,880.5C 1306.5,876.342 1305,872.342 1303,868.5C 1301.88,865.558 1301.54,862.558 1302,859.5C 1304.64,857.69 1307.14,855.69 1309.5,853.5C 1312.55,856.048 1315.88,856.714 1319.5,855.5C 1326.5,850.668 1333.5,845.834 1340.5,841C 1343.46,837.034 1346.8,833.367 1350.5,830C 1353.31,828.451 1356.31,827.618 1359.5,827.5C 1358.83,823.5 1360.5,821.833 1364.5,822.5C 1364.35,821.448 1364.52,820.448 1365,819.5C 1367.41,817.597 1369.24,815.264 1370.5,812.5C 1372.77,811.866 1374.44,810.532 1375.5,808.5 Z"/></g>
<g><path style="opacity:0.997" fill="#fdfdfd" d="M 1199.5,826.5 C 1204.5,828.787 1209.84,829.953 1215.5,830C 1217.96,833.078 1220.29,836.244 1222.5,839.5C 1224.3,841.703 1226.63,842.869 1229.5,843C 1231.26,845.846 1233.26,848.512 1235.5,851C 1240.26,853.587 1245.26,855.587 1250.5,857C 1253.63,860.498 1257.13,863.665 1261,866.5C 1263.13,869.473 1262.96,872.307 1260.5,875C 1262.21,876.611 1264.04,878.111 1266,879.5C 1267.78,882.941 1269.94,886.108 1272.5,889C 1273.5,889.667 1274.5,889.667 1275.5,889C 1272.74,886.598 1273.08,884.598 1276.5,883C 1278.26,882.202 1279.93,882.369 1281.5,883.5C 1280.81,885.064 1280.98,886.731 1282,888.5C 1284.22,890.385 1286.06,892.551 1287.5,895C 1287.37,896.059 1286.87,896.892 1286,897.5C 1283.1,894.733 1281.1,895.4 1280,899.5C 1279.64,903.502 1279.81,907.502 1280.5,911.5C 1280.52,913.965 1280.02,916.298 1279,918.5C 1274.83,916.199 1270.5,915.533 1266,916.5C 1263.19,912.338 1259.36,909.505 1254.5,908C 1251.77,905.87 1249.77,903.203 1248.5,900C 1246.9,899.727 1245.4,899.227 1244,898.5C 1240.43,891.924 1237.09,885.258 1234,878.5C 1233.31,875.064 1232.31,871.73 1231,868.5C 1227,863.167 1222.33,858.5 1217,854.5C 1214.56,851.952 1212.89,848.952 1212,845.5C 1204.93,842.099 1200.43,836.599 1198.5,829C 1198.74,828.098 1199.08,827.265 1199.5,826.5 Z"/></g>
<g><path style="opacity:0.997" fill="#fafafa" d="M 1470.5,849.5 C 1471.83,849.5 1473.17,849.5 1474.5,849.5C 1474.34,851.857 1474.5,854.19 1475,856.5C 1478.28,853.486 1480.78,853.986 1482.5,858C 1481.49,859.168 1480.49,860.335 1479.5,861.5C 1481.74,863.452 1483.74,865.618 1485.5,868C 1483.38,869.194 1481.04,869.86 1478.5,870C 1476.46,872.374 1474.13,874.374 1471.5,876C 1479.64,881.738 1478.64,884.904 1468.5,885.5C 1466.79,873.363 1467.46,861.363 1470.5,849.5 Z"/></g>
<g><path style="opacity:0.997" fill="#fbfbfb" d="M 1442.5,857.5 C 1443.5,857.5 1444.5,857.5 1445.5,857.5C 1445.5,859.833 1445.5,862.167 1445.5,864.5C 1442.03,864.446 1439.37,865.946 1437.5,869C 1435.87,869.494 1434.2,869.66 1432.5,869.5C 1433.23,873.886 1431.56,876.72 1427.5,878C 1429.26,878.202 1430.92,878.702 1432.5,879.5C 1430.75,881.806 1428.58,882.14 1426,880.5C 1423.69,882.439 1421.86,884.772 1420.5,887.5C 1422.52,894.881 1426.52,900.881 1432.5,905.5C 1430.13,908.028 1429.13,911.028 1429.5,914.5C 1427.5,914.5 1425.5,914.5 1423.5,914.5C 1423.72,910.205 1422.39,909.538 1419.5,912.5C 1417.99,910.493 1416.16,908.826 1414,907.5C 1413.32,906.216 1413.48,905.049 1414.5,904C 1412.14,899.893 1409.97,895.726 1408,891.5C 1406.06,893.78 1405.23,896.447 1405.5,899.5C 1406.16,904.481 1406.5,909.481 1406.5,914.5C 1402.45,914.824 1398.45,914.491 1394.5,913.5C 1396.88,908.777 1397.88,903.777 1397.5,898.5C 1394.83,898.5 1392.17,898.5 1389.5,898.5C 1390.89,892.238 1391.89,885.905 1392.5,879.5C 1392.44,877.109 1392.11,874.775 1391.5,872.5C 1392.32,871.614 1393.32,871.281 1394.5,871.5C 1394.16,867.849 1395.83,866.183 1399.5,866.5C 1400.14,863.012 1402.14,860.512 1405.5,859C 1414,858.562 1422.5,858.729 1431,859.5C 1434.17,859.333 1437.33,859.167 1440.5,859C 1441.42,858.722 1442.08,858.222 1442.5,857.5 Z M 1413.5,866.5 C 1415.59,867.045 1417.59,867.878 1419.5,869C 1424.78,874.997 1428.11,873.83 1429.5,865.5C 1423.97,865.179 1418.64,865.512 1413.5,866.5 Z M 1408.5,869.5 C 1407.08,870.451 1405.41,870.784 1403.5,870.5C 1403.5,871.5 1403.5,872.5 1403.5,873.5C 1408.17,874.833 1412.83,874.833 1417.5,873.5C 1417.5,872.5 1417.5,871.5 1417.5,870.5C 1414.54,869.841 1411.54,869.508 1408.5,869.5 Z"/></g>
<g><path style="opacity:1" fill="#b4630b" d="M 2898.5,857.5 C 2900.65,858.748 2902.65,860.248 2904.5,862C 2903.83,862.667 2903.17,862.667 2902.5,862C 2900.91,861.051 2899.57,859.885 2898.5,858.5C 2898.5,858.167 2898.5,857.833 2898.5,857.5 Z"/></g>
<g><path style="opacity:1" fill="#f3f3f3" d="M 1492.5,873.5 C 1493.5,873.5 1494.5,873.5 1495.5,873.5C 1495.34,875.527 1495.5,877.527 1496,879.5C 1502.22,884.527 1501.06,886.527 1492.5,885.5C 1491.8,881.413 1491.8,877.413 1492.5,873.5 Z"/></g>
<g><path style="opacity:0.999" fill="#fdfdfd" d="M 1518.5,872.5 C 1522.18,872.335 1525.85,872.501 1529.5,873C 1531.24,875.192 1532.4,877.692 1533,880.5C 1533.83,881.333 1534.67,882.167 1535.5,883C 1532.58,885.893 1532.91,887.06 1536.5,886.5C 1537.47,888.743 1537.81,891.076 1537.5,893.5C 1539.86,893.663 1542.19,893.497 1544.5,893C 1551.5,887.833 1558.5,882.667 1565.5,877.5C 1573.28,884.056 1582.28,887.222 1592.5,887C 1600.37,890.957 1608.71,893.29 1617.5,894C 1622.41,898.561 1628.07,901.895 1634.5,904C 1635.44,906.381 1635.77,908.881 1635.5,911.5C 1641.58,911.338 1646.75,913.338 1651,917.5C 1651.49,918.793 1651.66,920.127 1651.5,921.5C 1649.83,921.5 1648.17,921.5 1646.5,921.5C 1647.83,924.356 1648.83,927.356 1649.5,930.5C 1651.17,930.5 1652.83,930.5 1654.5,930.5C 1655.32,937.039 1658.98,941.205 1665.5,943C 1668.9,945.732 1671.56,949.065 1673.5,953C 1669.86,954.711 1666.86,953.711 1664.5,950C 1659.14,949.829 1653.8,949.329 1648.5,948.5C 1644.17,944.503 1640.84,939.836 1638.5,934.5C 1632.6,930.977 1626.27,929.81 1619.5,931C 1617.54,934.308 1615.54,937.641 1613.5,941C 1606.97,943.109 1600.3,943.776 1593.5,943C 1589.78,937.304 1584.45,934.471 1577.5,934.5C 1573.17,935.249 1568.84,935.916 1564.5,936.5C 1564.34,934.143 1564.5,931.81 1565,929.5C 1567.29,927.628 1569.79,926.128 1572.5,925C 1571.34,922.184 1570.17,919.35 1569,916.5C 1566.83,914.333 1564.67,912.167 1562.5,910C 1551.93,906.302 1541.27,902.969 1530.5,900C 1527.05,899.527 1523.72,900.027 1520.5,901.5C 1519.51,899.228 1518.68,896.895 1518,894.5C 1515.95,893.277 1513.78,892.277 1511.5,891.5C 1514.3,889.786 1517.3,888.453 1520.5,887.5C 1521.52,886.998 1521.69,886.332 1521,885.5C 1517.04,887.219 1512.88,887.886 1508.5,887.5C 1508.63,885.8 1509.29,884.3 1510.5,883C 1510.17,882.5 1509.83,882 1509.5,881.5C 1506.15,880.774 1502.81,879.941 1499.5,879C 1497.79,877.867 1497.29,876.367 1498,874.5C 1504.93,873.85 1511.77,873.183 1518.5,872.5 Z"/></g>
<g><path style="opacity:0.85" fill="#fafafa" d="M 1483.5,882.5 C 1484.8,884.153 1484.47,885.653 1482.5,887C 1480.5,887.667 1478.5,887.667 1476.5,887C 1478.59,884.964 1480.93,883.464 1483.5,882.5 Z"/></g>
<g><path style="opacity:0.993" fill="#f8f8f8" d="M 1480.5,889.5 C 1486.86,888.901 1492.86,890.068 1498.5,893C 1500.84,894.724 1501.34,896.557 1500,898.5C 1494.73,897.137 1489.4,896.137 1484,895.5C 1481.9,897.279 1479.56,898.612 1477,899.5C 1476.17,899.167 1475.33,898.833 1474.5,898.5C 1475.83,896.833 1475.83,895.167 1474.5,893.5C 1476.29,891.684 1478.29,890.351 1480.5,889.5 Z"/></g>
<g><path style="opacity:0.982" fill="#fbfbfb" d="M 1461.5,892.5 C 1464.96,891.889 1467.63,893.056 1469.5,896C 1468.83,897.333 1467.83,898.333 1466.5,899C 1463.85,899.497 1461.19,899.664 1458.5,899.5C 1457.91,896.325 1458.91,893.991 1461.5,892.5 Z"/></g>
<g><path style="opacity:1" fill="#fefefe" d="M 41.5,894.5 C 194.585,989.729 353.585,1075.23 518.5,1151C 678.828,1224.11 844.828,1281.11 1016.5,1322C 1086.79,1338.27 1157.79,1350.44 1229.5,1358.5C 1453.05,1385.66 1673.05,1368.33 1889.5,1306.5C 1913.17,1299.61 1936.51,1291.94 1959.5,1283.5C 2069.75,1245.54 2175.09,1197.04 2275.5,1138C 2339.56,1099.98 2401.56,1058.98 2461.5,1015C 2543.3,1014.82 2624.96,1017.82 2706.5,1024C 2551.54,1134.36 2386.54,1228.7 2211.5,1307C 2052.29,1377.02 1886.95,1425.85 1715.5,1453.5C 1514.57,1483.19 1314.57,1477.86 1115.5,1437.5C 948.44,1401.98 788.106,1346.81 634.5,1272C 469.868,1191.07 313.868,1097.07 166.5,990C 124.366,959.021 82.6989,927.521 41.5,895.5C 41.5,895.167 41.5,894.833 41.5,894.5 Z"/></g>
<g><path style="opacity:0.995" fill="#fbfbfb" d="M 1279.5,919.5 C 1283.51,919.334 1287.51,919.501 1291.5,920C 1300.18,922.879 1309.01,925.045 1318,926.5C 1318.49,925.207 1318.66,923.873 1318.5,922.5C 1324.94,922.478 1331.11,923.811 1337,926.5C 1341.36,924.414 1345.86,924.081 1350.5,925.5C 1350.02,926.478 1349.36,927.311 1348.5,928C 1346.11,928.681 1343.77,929.515 1341.5,930.5C 1345.46,931.327 1349.46,931.827 1353.5,932C 1356.03,935.119 1359.36,936.285 1363.5,935.5C 1363.5,937.167 1363.5,938.833 1363.5,940.5C 1355.77,941.156 1348.1,940.489 1340.5,938.5C 1337.47,938.597 1334.47,938.931 1331.5,939.5C 1319.39,935.036 1307.06,932.869 1294.5,933C 1287.74,931.12 1281.74,927.954 1276.5,923.5C 1277.52,922.148 1278.52,920.815 1279.5,919.5 Z"/></g>
<g><path style="opacity:1" fill="#fafafa" d="M 1458.5,929.5 C 1460.59,929.857 1462.59,930.523 1464.5,931.5C 1461.83,934.167 1459.17,934.167 1456.5,931.5C 1457.24,930.818 1457.91,930.151 1458.5,929.5 Z"/></g>
<g><path style="opacity:0.934" fill="#f5f5f5" d="M 1442.5,934.5 C 1444.83,934.247 1446.83,934.914 1448.5,936.5C 1445.83,937.833 1443.17,937.833 1440.5,936.5C 1441.24,935.818 1441.91,935.151 1442.5,934.5 Z"/></g>
<g><path style="opacity:0.995" fill="#f9f9f9" d="M 1462.5,935.5 C 1463.87,935.343 1465.21,935.51 1466.5,936C 1467.83,937 1467.83,938 1466.5,939C 1455.83,943.586 1445.66,948.753 1436,954.5C 1433.93,950.744 1434.77,947.578 1438.5,945C 1443.31,943.43 1447.64,941.096 1451.5,938C 1455.47,937.892 1459.13,937.059 1462.5,935.5 Z"/></g>
<g><path style="opacity:1" fill="#f8f8f8" d="M 1370.5,935.5 C 1372.72,936.924 1375.22,937.591 1378,937.5C 1382.81,936.419 1387.64,935.919 1392.5,936C 1394.83,937.243 1395.5,938.909 1394.5,941C 1385.18,942.061 1375.84,942.894 1366.5,943.5C 1365.77,939.693 1367.11,937.026 1370.5,935.5 Z"/></g>
<g><path style="opacity:1" fill="#f6f6f6" d="M 1403.5,935.5 C 1408.82,936.296 1414.15,936.963 1419.5,937.5C 1420.04,940.865 1418.7,942.865 1415.5,943.5C 1410.49,942.164 1405.49,940.831 1400.5,939.5C 1401.52,938.148 1402.52,936.815 1403.5,935.5 Z"/></g>
<g><path style="opacity:1" fill="#f4f4f4" d="M 1670.5,939.5 C 1676.15,940.779 1678.48,944.112 1677.5,949.5C 1675.16,947.455 1672.83,945.455 1670.5,943.5C 1669.37,942.192 1669.37,940.858 1670.5,939.5 Z"/></g>
<g><path style="opacity:0.971" fill="#f8f8f8" d="M 1395.5,944.5 C 1398.85,944.335 1402.18,944.502 1405.5,945C 1407.04,946.878 1408.88,948.378 1411,949.5C 1411.48,950.448 1411.65,951.448 1411.5,952.5C 1406.07,951.908 1400.73,950.908 1395.5,949.5C 1395.5,947.833 1395.5,946.167 1395.5,944.5 Z"/></g>
<g><path style="opacity:1" fill="#fefefe" d="M 1551.5,1119.5 C 1547.46,1121.36 1543.79,1123.86 1540.5,1127C 1538.09,1128.71 1535.42,1129.54 1532.5,1129.5C 1532.63,1127.35 1532.13,1125.35 1531,1123.5C 1527.45,1120.81 1524.95,1117.47 1523.5,1113.5C 1516.13,1113.95 1509.3,1112.28 1503,1108.5C 1501.32,1109.52 1499.66,1110.52 1498,1111.5C 1490.81,1108.48 1484.14,1109.48 1478,1114.5C 1469.09,1113.2 1460.59,1114.7 1452.5,1119C 1449.69,1120.64 1447.36,1122.81 1445.5,1125.5C 1443.5,1125.83 1441.5,1126.17 1439.5,1126.5C 1428.98,1122.62 1419.31,1124.12 1410.5,1131C 1403.78,1131.77 1397.11,1131.44 1390.5,1130C 1388.41,1129.21 1386.58,1128.04 1385,1126.5C 1385.15,1123.51 1385.65,1120.51 1386.5,1117.5C 1386.27,1112.03 1383.77,1108.03 1379,1105.5C 1376.99,1096.48 1372.66,1088.81 1366,1082.5C 1364.83,1080.17 1363.67,1077.83 1362.5,1075.5C 1363.83,1074.83 1365.17,1074.17 1366.5,1073.5C 1363.89,1068.89 1360.89,1064.56 1357.5,1060.5C 1358,1059.5 1358.5,1058.5 1359,1057.5C 1359.33,1052.5 1359.67,1047.5 1360,1042.5C 1360.33,1042.17 1360.67,1041.83 1361,1041.5C 1362.04,1042.62 1362.71,1043.96 1363,1045.5C 1368.55,1040.95 1374.39,1036.78 1380.5,1033C 1388.07,1033.15 1395.23,1031.32 1402,1027.5C 1405.55,1028.83 1409.05,1028.66 1412.5,1027C 1420.35,1021.76 1425.02,1014.6 1426.5,1005.5C 1427.83,1004.83 1428.83,1003.83 1429.5,1002.5C 1430.69,1001.57 1432.02,1001.24 1433.5,1001.5C 1432.92,1004.55 1434.09,1006.55 1437,1007.5C 1438.39,1004.72 1438.89,1001.72 1438.5,998.5C 1440.92,998.808 1443.26,998.474 1445.5,997.5C 1443.73,996.18 1443.4,994.68 1444.5,993C 1451.3,987.04 1458.96,982.54 1467.5,979.5C 1470.97,981.808 1474.31,984.308 1477.5,987C 1478.9,987.595 1480.23,987.428 1481.5,986.5C 1484.02,988.408 1486.69,988.741 1489.5,987.5C 1488.78,984.1 1489.28,980.767 1491,977.5C 1492.7,976.594 1494.53,976.261 1496.5,976.5C 1496.19,974.076 1496.53,971.743 1497.5,969.5C 1502.1,968.345 1506.76,967.512 1511.5,967C 1513.86,966.803 1515.53,965.636 1516.5,963.5C 1514.61,962.396 1512.94,961.063 1511.5,959.5C 1512.33,959.167 1513.17,958.833 1514,958.5C 1521.44,960.868 1528.94,963.035 1536.5,965C 1541.22,965.777 1545.89,965.61 1550.5,964.5C 1553.25,965.716 1554.42,967.716 1554,970.5C 1549.78,975.724 1545.94,981.224 1542.5,987C 1548.13,991.776 1554.46,995.443 1561.5,998C 1563.35,999.093 1565.02,1000.43 1566.5,1002C 1568.5,1002 1570.5,1002 1572.5,1002C 1573.97,1006.08 1576.97,1008.25 1581.5,1008.5C 1583.73,1007.35 1586.06,1006.35 1588.5,1005.5C 1593.61,997.585 1595.27,989.085 1593.5,980C 1595.13,977.246 1596.63,974.412 1598,971.5C 1599.29,965.818 1600.45,960.151 1601.5,954.5C 1603.5,954.5 1605.5,954.5 1607.5,954.5C 1610.44,962.576 1612.27,970.909 1613,979.5C 1616.71,981.782 1620.71,983.448 1625,984.5C 1625.13,992.352 1627.13,999.686 1631,1006.5C 1631.33,1009.83 1631.67,1013.17 1632,1016.5C 1637.9,1020.73 1644.07,1024.56 1650.5,1028C 1650.04,1028.41 1649.71,1028.91 1649.5,1029.5C 1651.44,1033.05 1653.11,1036.72 1654.5,1040.5C 1656.64,1041.6 1658.81,1042.6 1661,1043.5C 1662.57,1051.42 1666.91,1057.42 1674,1061.5C 1672.68,1070.41 1671.68,1079.41 1671,1088.5C 1666.08,1092.76 1662.91,1098.09 1661.5,1104.5C 1657.8,1105.9 1656.13,1108.57 1656.5,1112.5C 1650.24,1112.37 1646.74,1115.37 1646,1121.5C 1642.64,1123.35 1639.64,1125.68 1637,1128.5C 1636.03,1131.95 1634.03,1134.62 1631,1136.5C 1630.5,1138.81 1630.34,1141.14 1630.5,1143.5C 1625.2,1144.44 1619.86,1145.27 1614.5,1146C 1612.14,1146.2 1610.47,1147.36 1609.5,1149.5C 1604.88,1150.49 1600.21,1150.83 1595.5,1150.5C 1595.76,1149.02 1595.43,1147.69 1594.5,1146.5C 1593.02,1147.48 1591.69,1148.65 1590.5,1150C 1580.84,1150.83 1571.51,1149.66 1562.5,1146.5C 1561.68,1143.55 1561.18,1140.55 1561,1137.5C 1559,1135.25 1556.5,1134.25 1553.5,1134.5C 1553.67,1132.14 1554.01,1129.81 1554.5,1127.5C 1551.34,1128.47 1548.51,1130.14 1546,1132.5C 1546.18,1129.91 1547.01,1127.41 1548.5,1125C 1548.36,1124.23 1548.02,1123.56 1547.5,1123C 1549.54,1122.5 1550.88,1121.34 1551.5,1119.5 Z"/></g>
<g><path style="opacity:0.294" fill="#332722" d="M 1721.5,1453.5 C 1719.5,1453.5 1717.5,1453.5 1715.5,1453.5C 1886.95,1425.85 2052.29,1377.02 2211.5,1307C 2386.54,1228.7 2551.54,1134.36 2706.5,1024C 2624.96,1017.82 2543.3,1014.82 2461.5,1015C 2401.56,1058.98 2339.56,1099.98 2275.5,1138C 2175.09,1197.04 2069.75,1245.54 1959.5,1283.5C 1959.5,1283.17 1959.5,1282.83 1959.5,1282.5C 2140.18,1217.68 2306.85,1128.18 2459.5,1014C 2543.3,1013.01 2626.96,1015.85 2710.5,1022.5C 2555.16,1134.04 2389.5,1229.21 2213.5,1308C 2074.36,1369.6 1930.03,1414.93 1780.5,1444C 1760.93,1447.82 1741.26,1450.98 1721.5,1453.5 Z"/></g>
<g><path style="opacity:0.996" fill="#f7f7f7" d="M 1764.5,1117.5 C 1765.5,1117.5 1766.5,1117.5 1767.5,1117.5C 1769.07,1121.49 1768.74,1125.32 1766.5,1129C 1767.11,1131.06 1768.11,1132.89 1769.5,1134.5C 1776.43,1130.05 1777.26,1131.05 1772,1137.5C 1769.53,1139.65 1766.7,1141.15 1763.5,1142C 1760,1148.6 1754.66,1153.1 1747.5,1155.5C 1746.48,1155 1746.31,1154.33 1747,1153.5C 1748.52,1151.98 1750.02,1150.48 1751.5,1149C 1750.38,1147.61 1749.88,1146.11 1750,1144.5C 1755.47,1140.04 1759.8,1134.7 1763,1128.5C 1764.24,1124.94 1764.74,1121.27 1764.5,1117.5 Z"/></g>
<g><path style="opacity:0.868" fill="#f8f8f8" d="M 1542.5,1133.5 C 1544.7,1133.57 1546.7,1134.23 1548.5,1135.5C 1545.91,1137.99 1543.24,1137.99 1540.5,1135.5C 1541.24,1134.82 1541.91,1134.15 1542.5,1133.5 Z"/></g>
<g><path style="opacity:0.994" fill="#f9f9f9" d="M 1738.5,1153.5 C 1742.75,1152.9 1743.91,1154.23 1742,1157.5C 1735.93,1160.9 1730.43,1165.07 1725.5,1170C 1719.5,1169.17 1715.84,1171.67 1714.5,1177.5C 1709.08,1180.11 1703.58,1182.44 1698,1184.5C 1695.52,1184.17 1693.35,1183.17 1691.5,1181.5C 1695.83,1178.33 1700.17,1175.17 1704.5,1172C 1714.46,1170.19 1722.79,1165.52 1729.5,1158C 1732.59,1156.45 1735.59,1154.95 1738.5,1153.5 Z"/></g>
<g><path style="opacity:1" fill="#fafafa" d="M 1588.5,1161.5 C 1592.33,1161.39 1595.83,1162.39 1599,1164.5C 1602.04,1162.07 1605.54,1161.07 1609.5,1161.5C 1609.22,1170.45 1604.55,1175.11 1595.5,1175.5C 1590.53,1176.36 1588.53,1174.53 1589.5,1170C 1587.6,1167.26 1587.26,1164.43 1588.5,1161.5 Z"/></g>
<g><path style="opacity:0.222" fill="#342822" d="M 1229.5,1357.5 C 1229.5,1357.83 1229.5,1358.17 1229.5,1358.5C 1157.79,1350.44 1086.79,1338.27 1016.5,1322C 844.828,1281.11 678.828,1224.11 518.5,1151C 353.585,1075.23 194.585,989.729 41.5,894.5C 39.0439,891.613 36.0439,889.779 32.5,889C 35.3785,891.385 38.3785,893.552 41.5,895.5C 82.6989,927.521 124.366,959.021 166.5,990C 313.868,1097.07 469.868,1191.07 634.5,1272C 788.106,1346.81 948.44,1401.98 1115.5,1437.5C 1114.17,1437.5 1112.83,1437.5 1111.5,1437.5C 968.583,1407.58 830.583,1362.75 697.5,1303C 558.247,1239.86 425.247,1166.53 298.5,1083C 199.978,1018.07 104.645,948.737 12.5,875C 39.8138,890.505 66.8138,906.838 93.5,924C 241.651,1013.92 395.317,1094.25 554.5,1165C 700.8,1229.55 851.8,1280.55 1007.5,1318C 1080.97,1334.96 1154.97,1348.13 1229.5,1357.5 Z"/></g>
<g><path style="opacity:1" fill="#a1590e" d="M 41.5,894.5 C 41.5,894.833 41.5,895.167 41.5,895.5C 38.3785,893.552 35.3785,891.385 32.5,889C 36.0439,889.779 39.0439,891.613 41.5,894.5 Z"/></g>
<g><path style="opacity:0.82" fill="#6c5f57" d="M 1959.5,1282.5 C 1959.5,1282.83 1959.5,1283.17 1959.5,1283.5C 1936.51,1291.94 1913.17,1299.61 1889.5,1306.5C 1889.5,1305.83 1889.17,1305.5 1888.5,1305.5C 1912.13,1298.07 1935.8,1290.4 1959.5,1282.5 Z"/></g>
<g><path style="opacity:0.383" fill="#2d221d" d="M 1888.5,1305.5 C 1889.17,1305.5 1889.5,1305.83 1889.5,1306.5C 1673.05,1368.33 1453.05,1385.66 1229.5,1358.5C 1229.5,1358.17 1229.5,1357.83 1229.5,1357.5C 1452.71,1384.3 1672.37,1366.97 1888.5,1305.5 Z"/></g>
<g><path style="opacity:0.464" fill="#30241f" d="M 1111.5,1437.5 C 1112.83,1437.5 1114.17,1437.5 1115.5,1437.5C 1314.57,1477.86 1514.57,1483.19 1715.5,1453.5C 1717.5,1453.5 1719.5,1453.5 1721.5,1453.5C 1538.44,1482.4 1355.44,1481.07 1172.5,1449.5C 1151.89,1446.24 1131.55,1442.24 1111.5,1437.5 Z"/></g>
<g><path style="opacity:1" fill="#fefffe" d="M 512.5,1620.5 C 521.192,1620.17 529.859,1620.5 538.5,1621.5C 527.288,1688.65 517.288,1755.98 508.5,1823.5C 507.35,1836.95 513.35,1843.95 526.5,1844.5C 525.337,1852.47 524.337,1860.47 523.5,1868.5C 510,1869.17 498.5,1864.84 489,1855.5C 485.873,1850.58 483.873,1845.25 483,1839.5C 482.086,1823.72 483.086,1808.05 486,1792.5C 494.729,1735.13 503.562,1677.8 512.5,1620.5 Z"/></g>
<g><path style="opacity:1" fill="#fefffe" d="M 887.5,1620.5 C 895.833,1620.5 904.167,1620.5 912.5,1620.5C 906.911,1666.88 901.411,1713.21 896,1759.5C 916.037,1736.13 934.537,1711.63 951.5,1686C 952.332,1685.31 952.998,1685.48 953.5,1686.5C 958.146,1692.31 962.979,1697.98 968,1703.5C 966.591,1707.31 964.591,1710.97 962,1714.5C 947.486,1733.68 932.986,1752.84 918.5,1772C 935.509,1802.85 951.842,1834.02 967.5,1865.5C 958.161,1865.67 948.827,1865.5 939.5,1865C 925.706,1839.91 912.04,1814.75 898.5,1789.5C 895.509,1792.66 892.675,1795.99 890,1799.5C 886.931,1821.48 884.098,1843.48 881.5,1865.5C 873.167,1865.5 864.833,1865.5 856.5,1865.5C 866.916,1783.84 877.249,1702.18 887.5,1620.5 Z"/></g>
<g><path style="opacity:1" fill="#fefffe" d="M 2236.5,1620.5 C 2244.84,1620.33 2253.17,1620.5 2261.5,1621C 2257.38,1649.1 2253.88,1677.27 2251,1705.5C 2257.92,1693.03 2268.59,1687.03 2283,1687.5C 2299.09,1688.6 2311.42,1695.93 2320,1709.5C 2326.61,1720.99 2330.61,1733.32 2332,1746.5C 2336.75,1784.52 2327.08,1818.19 2303,1847.5C 2286.64,1864.96 2266.8,1871.12 2243.5,1866C 2235.94,1862.77 2230.77,1857.27 2228,1849.5C 2223.97,1855.37 2220.14,1861.37 2216.5,1867.5C 2210.87,1868.5 2205.21,1868.83 2199.5,1868.5C 2204.96,1845.37 2209.46,1822.04 2213,1798.5C 2221.16,1739.2 2229,1679.87 2236.5,1620.5 Z M 2267.5,1714.5 C 2285.98,1714.15 2297.81,1722.81 2303,1740.5C 2310.24,1770.95 2304.91,1798.95 2287,1824.5C 2279.42,1834.92 2269.25,1840.92 2256.5,1842.5C 2244.33,1840.16 2237,1833 2234.5,1821C 2238.48,1793.14 2242.65,1765.3 2247,1737.5C 2250.65,1726.8 2257.48,1719.13 2267.5,1714.5 Z"/></g>
<g><path style="opacity:1" fill="#fefffe" d="M 598.5,1623.5 C 612.173,1624.18 619.173,1631.51 619.5,1645.5C 619.55,1657.45 613.883,1664.79 602.5,1667.5C 593.366,1666.53 587.866,1661.53 586,1652.5C 582.764,1639.31 586.931,1629.64 598.5,1623.5 Z"/></g>
<g><path style="opacity:1" fill="#fefffe" d="M 817.5,1623.5 C 831.173,1624.18 838.173,1631.51 838.5,1645.5C 838.55,1657.45 832.883,1664.79 821.5,1667.5C 812.366,1666.53 806.866,1661.53 805,1652.5C 801.764,1639.31 805.931,1629.64 817.5,1623.5 Z"/></g>
<g><path style="opacity:1" fill="#fefffe" d="M 357.5,1627.5 C 366.5,1627.5 375.5,1627.5 384.5,1627.5C 379,1667.16 373.834,1706.83 369,1746.5C 395.667,1707.17 422.333,1667.83 449,1628.5C 459.423,1627.35 469.923,1627.18 480.5,1628C 457.5,1662.33 434.5,1696.67 411.5,1731C 426.667,1775.67 441.334,1820.5 455.5,1865.5C 445.478,1865.83 435.478,1865.5 425.5,1864.5C 414.229,1829.02 402.563,1793.69 390.5,1758.5C 380.115,1772.06 370.282,1786.06 361,1800.5C 357.651,1822.11 354.818,1843.77 352.5,1865.5C 343.5,1865.5 334.5,1865.5 325.5,1865.5C 336.447,1786.2 347.114,1706.87 357.5,1627.5 Z"/></g>
<g><path style="opacity:1" fill="#fefffe" d="M 1114.5,1627.5 C 1119.17,1627.5 1123.83,1627.5 1128.5,1627.5C 1134.92,1681.83 1141.42,1736.17 1148,1790.5C 1169.38,1737.02 1190.38,1683.36 1211,1629.5C 1215.52,1627.59 1220.35,1626.93 1225.5,1627.5C 1227.5,1706.83 1229.5,1786.16 1231.5,1865.5C 1222.5,1865.5 1213.5,1865.5 1204.5,1865.5C 1204.44,1817.82 1203.61,1770.15 1202,1722.5C 1182.46,1770.95 1162.63,1819.29 1142.5,1867.5C 1139.68,1868.97 1137.18,1868.64 1135,1866.5C 1128.67,1817.83 1122.33,1769.17 1116,1720.5C 1101.7,1768.72 1087.86,1817.05 1074.5,1865.5C 1066.17,1865.5 1057.83,1865.5 1049.5,1865.5C 1071.17,1786.17 1092.83,1706.83 1114.5,1627.5 Z"/></g>
<g><path style="opacity:1" fill="#fefffe" d="M 1721.5,1627.5 C 1769.83,1627.5 1818.17,1627.5 1866.5,1627.5C 1865.54,1637.23 1864.21,1646.89 1862.5,1656.5C 1842.51,1657.5 1822.51,1657.83 1802.5,1657.5C 1793,1726.81 1783.67,1796.14 1774.5,1865.5C 1765.5,1865.5 1756.5,1865.5 1747.5,1865.5C 1756.93,1796.18 1766.26,1726.85 1775.5,1657.5C 1756.17,1657.5 1736.83,1657.5 1717.5,1657.5C 1718.74,1647.49 1720.07,1637.49 1721.5,1627.5 Z"/></g>
<g><path style="opacity:1" fill="#fefffe" d="M 1455.5,1641.5 C 1456.5,1641.47 1457.16,1641.97 1457.5,1643C 1454.34,1659.14 1451.34,1675.31 1448.5,1691.5C 1460.85,1691.17 1473.18,1691.5 1485.5,1692.5C 1483.74,1700.42 1482.4,1708.42 1481.5,1716.5C 1468.83,1716.5 1456.17,1716.5 1443.5,1716.5C 1439.42,1744.89 1434.92,1773.22 1430,1801.5C 1428.69,1809.13 1428.36,1816.8 1429,1824.5C 1431,1837.42 1438.5,1842.92 1451.5,1841C 1456.76,1839.86 1461.76,1838.03 1466.5,1835.5C 1466.83,1836 1467.17,1836.5 1467.5,1837C 1466.87,1845.82 1466.21,1854.65 1465.5,1863.5C 1420.12,1879.08 1399.29,1863.08 1403,1815.5C 1408.4,1782.52 1413.57,1749.52 1418.5,1716.5C 1413.46,1716.83 1408.46,1716.49 1403.5,1715.5C 1405.26,1707.58 1406.6,1699.58 1407.5,1691.5C 1412.83,1691.5 1418.17,1691.5 1423.5,1691.5C 1424.96,1679.08 1426.96,1666.74 1429.5,1654.5C 1438.51,1650.66 1447.17,1646.33 1455.5,1641.5 Z"/></g>
<g><path style="opacity:1" fill="#fefffe" d="M 2030.5,1641.5 C 2031.5,1641.47 2032.16,1641.97 2032.5,1643C 2029.34,1659.14 2026.34,1675.31 2023.5,1691.5C 2035.85,1691.17 2048.18,1691.5 2060.5,1692.5C 2058.74,1700.42 2057.4,1708.42 2056.5,1716.5C 2043.83,1716.5 2031.17,1716.5 2018.5,1716.5C 2014.42,1744.89 2009.92,1773.22 2005,1801.5C 2003.69,1809.13 2003.36,1816.8 2004,1824.5C 2006,1837.42 2013.5,1842.92 2026.5,1841C 2031.76,1839.86 2036.76,1838.03 2041.5,1835.5C 2041.83,1836 2042.17,1836.5 2042.5,1837C 2041.87,1845.82 2041.21,1854.65 2040.5,1863.5C 1995.12,1879.08 1974.29,1863.08 1978,1815.5C 1983.4,1782.52 1988.57,1749.52 1993.5,1716.5C 1988.46,1716.83 1983.46,1716.49 1978.5,1715.5C 1980.26,1707.58 1981.6,1699.58 1982.5,1691.5C 1987.83,1691.5 1993.17,1691.5 1998.5,1691.5C 1999.96,1679.08 2001.96,1666.74 2004.5,1654.5C 2013.51,1650.66 2022.17,1646.33 2030.5,1641.5 Z"/></g>
<g><path style="opacity:1" fill="#fefffe" d="M 672.5,1687.5 C 673.931,1687.88 674.764,1688.88 675,1690.5C 676,1697.5 677,1704.5 678,1711.5C 692.411,1690.91 711.911,1683.75 736.5,1690C 748.911,1696.3 755.745,1706.46 757,1720.5C 757.566,1725.83 758.066,1731.16 758.5,1736.5C 753.412,1779.54 748.079,1822.54 742.5,1865.5C 733.833,1865.5 725.167,1865.5 716.5,1865.5C 721.952,1825.05 726.952,1784.55 731.5,1744C 732.513,1720.66 721.846,1711.66 699.5,1717C 690.1,1721.73 682.6,1728.57 677,1737.5C 671.491,1779.9 665.657,1822.23 659.5,1864.5C 651.167,1865.83 642.833,1865.83 634.5,1864.5C 640.991,1819.9 647.157,1775.23 653,1730.5C 653.897,1718.36 653.063,1706.36 650.5,1694.5C 657.795,1691.85 665.128,1689.51 672.5,1687.5 Z"/></g>
<g><path style="opacity:1" fill="#fefffe" d="M 1323.5,1687.5 C 1339.59,1686.47 1354.93,1689.31 1369.5,1696C 1371.96,1697.46 1374.13,1699.29 1376,1701.5C 1371.11,1736.18 1365.78,1770.85 1360,1805.5C 1358.35,1825.84 1360.19,1845.84 1365.5,1865.5C 1357.16,1865.67 1348.83,1865.5 1340.5,1865C 1338.52,1859.94 1336.85,1854.78 1335.5,1849.5C 1318.37,1867.7 1298.04,1872.53 1274.5,1864C 1263.31,1856.49 1256.48,1845.99 1254,1832.5C 1247.51,1790.26 1255.85,1751.26 1279,1715.5C 1290.17,1700.13 1305,1690.8 1323.5,1687.5 Z M 1324.5,1713.5 C 1330.91,1713.76 1337.24,1714.59 1343.5,1716C 1345.79,1717.29 1347.79,1718.96 1349.5,1721C 1345.29,1745.12 1341.12,1769.28 1337,1793.5C 1333.95,1807.92 1327.95,1820.92 1319,1832.5C 1308.47,1844.15 1297.14,1845.15 1285,1835.5C 1279.54,1826.66 1277.04,1816.99 1277.5,1806.5C 1277.1,1778.41 1284.6,1752.75 1300,1729.5C 1306.43,1721.22 1314.6,1715.89 1324.5,1713.5 Z"/></g>
<g><path style="opacity:1" fill="#fefffe" d="M 1565.5,1687.5 C 1581.59,1686.47 1596.93,1689.31 1611.5,1696C 1613.96,1697.46 1616.13,1699.29 1618,1701.5C 1613.11,1736.18 1607.78,1770.85 1602,1805.5C 1600.35,1825.84 1602.19,1845.84 1607.5,1865.5C 1599.16,1865.67 1590.83,1865.5 1582.5,1865C 1580.52,1859.94 1578.85,1854.78 1577.5,1849.5C 1560.37,1867.7 1540.04,1872.53 1516.5,1864C 1505.31,1856.49 1498.48,1845.99 1496,1832.5C 1489.51,1790.26 1497.85,1751.26 1521,1715.5C 1532.17,1700.13 1547,1690.8 1565.5,1687.5 Z M 1566.5,1713.5 C 1572.91,1713.76 1579.24,1714.59 1585.5,1716C 1587.79,1717.29 1589.79,1718.96 1591.5,1721C 1587.29,1745.12 1583.12,1769.28 1579,1793.5C 1575.95,1807.92 1569.95,1820.92 1561,1832.5C 1550.47,1844.15 1539.14,1845.15 1527,1835.5C 1521.54,1826.66 1519.04,1816.99 1519.5,1806.5C 1519.1,1778.41 1526.6,1752.75 1542,1729.5C 1548.43,1721.22 1556.6,1715.89 1566.5,1713.5 Z"/></g>
<g><path style="opacity:1" fill="#fefffe" d="M 1895.5,1687.5 C 1922.53,1685.75 1940.03,1697.75 1948,1723.5C 1954.56,1757.48 1951.22,1790.48 1938,1822.5C 1930.05,1840.92 1917.22,1854.76 1899.5,1864C 1857.15,1875.91 1832.99,1860.08 1827,1816.5C 1824.09,1787.66 1828.42,1759.99 1840,1733.5C 1847.95,1715.08 1860.78,1701.24 1878.5,1692C 1884.18,1690 1889.84,1688.5 1895.5,1687.5 Z M 1895.5,1713.5 C 1914.27,1715.1 1924.1,1725.44 1925,1744.5C 1927.51,1773.28 1921.84,1800.28 1908,1825.5C 1897.21,1841.49 1883.04,1845.66 1865.5,1838C 1857.69,1830.54 1853.52,1821.37 1853,1810.5C 1850.88,1784.2 1855.55,1759.2 1867,1735.5C 1870.45,1730.38 1874.29,1725.55 1878.5,1721C 1883.78,1717.35 1889.45,1714.85 1895.5,1713.5 Z"/></g>
<g><path style="opacity:1" fill="#fefffe" d="M 2141.5,1687.5 C 2157.59,1686.47 2172.93,1689.31 2187.5,1696C 2189.96,1697.46 2192.13,1699.29 2194,1701.5C 2189.11,1736.18 2183.78,1770.85 2178,1805.5C 2176.35,1825.84 2178.19,1845.84 2183.5,1865.5C 2175.16,1865.67 2166.83,1865.5 2158.5,1865C 2156.52,1859.94 2154.85,1854.78 2153.5,1849.5C 2136.37,1867.7 2116.04,1872.53 2092.5,1864C 2081.31,1856.49 2074.48,1845.99 2072,1832.5C 2065.51,1790.26 2073.85,1751.26 2097,1715.5C 2108.17,1700.13 2123,1690.8 2141.5,1687.5 Z M 2142.5,1713.5 C 2148.91,1713.76 2155.24,1714.59 2161.5,1716C 2163.79,1717.29 2165.79,1718.96 2167.5,1721C 2163.29,1745.12 2159.12,1769.28 2155,1793.5C 2151.95,1807.92 2145.95,1820.92 2137,1832.5C 2126.47,1844.15 2115.14,1845.15 2103,1835.5C 2097.54,1826.66 2095.04,1816.99 2095.5,1806.5C 2095.1,1778.41 2102.6,1752.75 2118,1729.5C 2124.43,1721.22 2132.6,1715.89 2142.5,1713.5 Z"/></g>
<g><path style="opacity:1" fill="#fefffe" d="M 2561.5,1687.5 C 2577.59,1686.47 2592.93,1689.31 2607.5,1696C 2609.96,1697.46 2612.13,1699.29 2614,1701.5C 2609.11,1736.18 2603.78,1770.85 2598,1805.5C 2596.35,1825.84 2598.19,1845.84 2603.5,1865.5C 2595.16,1865.67 2586.83,1865.5 2578.5,1865C 2576.52,1859.94 2574.85,1854.78 2573.5,1849.5C 2556.37,1867.7 2536.04,1872.53 2512.5,1864C 2501.31,1856.49 2494.48,1845.99 2492,1832.5C 2485.51,1790.26 2493.85,1751.26 2517,1715.5C 2528.17,1700.13 2543,1690.8 2561.5,1687.5 Z M 2562.5,1713.5 C 2568.91,1713.76 2575.24,1714.59 2581.5,1716C 2583.79,1717.29 2585.79,1718.96 2587.5,1721C 2583.29,1745.12 2579.12,1769.28 2575,1793.5C 2571.95,1807.92 2565.95,1820.92 2557,1832.5C 2546.47,1844.15 2535.14,1845.15 2523,1835.5C 2517.54,1826.66 2515.04,1816.99 2515.5,1806.5C 2515.1,1778.41 2522.6,1752.75 2538,1729.5C 2544.43,1721.22 2552.6,1715.89 2562.5,1713.5 Z"/></g>
<g><path style="opacity:1" fill="#fefffe" d="M 2663.5,1687.5 C 2664.93,1687.88 2665.76,1688.88 2666,1690.5C 2667,1697.5 2668,1704.5 2669,1711.5C 2683.41,1690.91 2702.91,1683.75 2727.5,1690C 2739.91,1696.3 2746.74,1706.46 2748,1720.5C 2748.57,1725.83 2749.07,1731.16 2749.5,1736.5C 2744.41,1779.54 2739.08,1822.54 2733.5,1865.5C 2724.83,1865.5 2716.17,1865.5 2707.5,1865.5C 2712.95,1825.05 2717.95,1784.55 2722.5,1744C 2723.51,1720.66 2712.85,1711.66 2690.5,1717C 2681.1,1721.73 2673.6,1728.57 2668,1737.5C 2662.49,1779.9 2656.66,1822.23 2650.5,1864.5C 2642.17,1865.83 2633.83,1865.83 2625.5,1864.5C 2631.99,1819.9 2638.16,1775.23 2644,1730.5C 2644.9,1718.36 2644.06,1706.36 2641.5,1694.5C 2648.79,1691.85 2656.13,1689.51 2663.5,1687.5 Z"/></g>
<g><path style="opacity:1" fill="#fefffe" d="M 570.5,1691.5 C 584.516,1691.17 598.516,1691.5 612.5,1692.5C 604.128,1750.11 596.128,1807.77 588.5,1865.5C 580.167,1865.5 571.833,1865.5 563.5,1865.5C 569.98,1816.47 576.647,1767.47 583.5,1718.5C 577.491,1718.67 571.491,1718.5 565.5,1718C 567.325,1709.22 568.992,1700.38 570.5,1691.5 Z"/></g>
<g><path style="opacity:1" fill="#fefffe" d="M 789.5,1691.5 C 803.516,1691.17 817.516,1691.5 831.5,1692.5C 823.128,1750.11 815.128,1807.77 807.5,1865.5C 799.167,1865.5 790.833,1865.5 782.5,1865.5C 788.98,1816.47 795.647,1767.47 802.5,1718.5C 796.491,1718.67 790.491,1718.5 784.5,1718C 786.325,1709.22 787.992,1700.38 789.5,1691.5 Z"/></g>
<g><path style="opacity:1" fill="#fefffe" d="M 2367.5,1691.5 C 2376.17,1691.5 2384.83,1691.5 2393.5,1691.5C 2387.63,1732.27 2382.3,1773.1 2377.5,1814C 2377.04,1836.76 2387.71,1845.09 2409.5,1839C 2425.5,1830.2 2435,1816.7 2438,1798.5C 2443.03,1762.8 2448.2,1727.13 2453.5,1691.5C 2462.17,1691.5 2470.83,1691.5 2479.5,1691.5C 2471.47,1749.18 2463.31,1806.84 2455,1864.5C 2446.23,1865.82 2437.39,1865.82 2428.5,1864.5C 2430.04,1857.9 2430.87,1851.23 2431,1844.5C 2420.48,1861.01 2405.31,1869.01 2385.5,1868.5C 2372.77,1868.72 2363.27,1863.39 2357,1852.5C 2354.52,1847.07 2352.86,1841.4 2352,1835.5C 2351.33,1826.17 2351.33,1816.83 2352,1807.5C 2357.17,1768.82 2362.33,1730.16 2367.5,1691.5 Z"/></g>
</svg>
